# xmcd
#
# Track frame offsets: 
#        150
#        12052
#        25133
#        38555
#        62066
#        80087
#        104400
#        124691
#        150943
#        171843
#        187306
#        200385
#        217171
#        231825
#        247585
#        263136
#
# Disc length: 3706 seconds
#
# Revision: 0
# Processed by: cddbd v1.5.2PL0 Copyright (c) Steve Scherf et al.
# Submitted via: ExactAudioCopy v0.99pb5
#
DISCID=d00e7810
DTITLE=Ski King - Evolution
DYEAR=2009
DGENRE=Country Rock
TTITLE0=Sanitys Edge
TTITLE1=Sweet Sweat
TTITLE2=Devil Woman
TTITLE3=Can You
TTITLE4=Skars
TTITLE5=The Game
TTITLE6=Behind My Eyes
TTITLE7=Taillights
TTITLE8=Violet Rays
TTITLE9=Midnight
TTITLE10=Mister
TTITLE11=Drugs
TTITLE12=Flying
TTITLE13=Cant Blow Away
TTITLE14=Remedy
TTITLE15=Die Alone
EXTD=
EXTT0=
EXTT1=
EXTT2=
EXTT3=
EXTT4=
EXTT5=
EXTT6=
EXTT7=
EXTT8=
EXTT9=
EXTT10=
EXTT11=
EXTT12=
EXTT13=
EXTT14=
EXTT15=
PLAYORDER=
